<mxfile host="app.diagrams.net" modified="2022-07-22T00:02:40.671Z" agent="5.0 (Windows NT 10.0; Win64; x64) AppleWebKit/537.36 (KHTML, like Gecko) Chrome/103.0.5060.114 Safari/537.36 Edg/103.0.1264.62" etag="mxe8nkDQvNs2hsGSeMAA" version="20.0.4" type="github">
  <diagram id="C5RBs43oDa-KdzZeNtuy" name="Page-1">
    <mxGraphModel dx="1342" dy="574" grid="1" gridSize="10" guides="1" tooltips="1" connect="1" arrows="1" fold="1" page="1" pageScale="1" pageWidth="827" pageHeight="1169" math="0" shadow="0">
      <root>
        <mxCell id="WIyWlLk6GJQsqaUBKTNV-0" />
        <mxCell id="WIyWlLk6GJQsqaUBKTNV-1" parent="WIyWlLk6GJQsqaUBKTNV-0" />
        <mxCell id="fgxXzfWQmhOMSccFoDnU-0" value="2 colheres&lt;br&gt;de Café" style="shape=parallelogram;perimeter=parallelogramPerimeter;whiteSpace=wrap;html=1;fixedSize=1;" vertex="1" parent="WIyWlLk6GJQsqaUBKTNV-1">
          <mxGeometry x="50" y="50" width="120" height="30" as="geometry" />
        </mxCell>
        <mxCell id="fgxXzfWQmhOMSccFoDnU-5" style="edgeStyle=orthogonalEdgeStyle;rounded=0;orthogonalLoop=1;jettySize=auto;html=1;exitX=0.5;exitY=1;exitDx=0;exitDy=0;entryX=0.5;entryY=0;entryDx=0;entryDy=0;" edge="1" parent="WIyWlLk6GJQsqaUBKTNV-1" source="fgxXzfWQmhOMSccFoDnU-1" target="fgxXzfWQmhOMSccFoDnU-2">
          <mxGeometry relative="1" as="geometry" />
        </mxCell>
        <mxCell id="fgxXzfWQmhOMSccFoDnU-1" value="1 L de água" style="shape=parallelogram;perimeter=parallelogramPerimeter;whiteSpace=wrap;html=1;fixedSize=1;" vertex="1" parent="WIyWlLk6GJQsqaUBKTNV-1">
          <mxGeometry x="500" y="50" width="120" height="30" as="geometry" />
        </mxCell>
        <mxCell id="fgxXzfWQmhOMSccFoDnU-8" style="edgeStyle=orthogonalEdgeStyle;rounded=0;orthogonalLoop=1;jettySize=auto;html=1;exitX=0.5;exitY=1;exitDx=0;exitDy=0;" edge="1" parent="WIyWlLk6GJQsqaUBKTNV-1" source="fgxXzfWQmhOMSccFoDnU-2" target="fgxXzfWQmhOMSccFoDnU-9">
          <mxGeometry relative="1" as="geometry" />
        </mxCell>
        <mxCell id="fgxXzfWQmhOMSccFoDnU-2" value="Chaleira" style="shape=parallelogram;perimeter=parallelogramPerimeter;whiteSpace=wrap;html=1;fixedSize=1;" vertex="1" parent="WIyWlLk6GJQsqaUBKTNV-1">
          <mxGeometry x="500" y="121" width="120" height="30" as="geometry" />
        </mxCell>
        <mxCell id="fgxXzfWQmhOMSccFoDnU-11" style="edgeStyle=orthogonalEdgeStyle;rounded=0;orthogonalLoop=1;jettySize=auto;html=1;exitX=0.5;exitY=1;exitDx=0;exitDy=0;entryX=0.5;entryY=0;entryDx=0;entryDy=0;" edge="1" parent="WIyWlLk6GJQsqaUBKTNV-1" source="fgxXzfWQmhOMSccFoDnU-3" target="fgxXzfWQmhOMSccFoDnU-9">
          <mxGeometry relative="1" as="geometry" />
        </mxCell>
        <mxCell id="fgxXzfWQmhOMSccFoDnU-3" value="Boca de fogão" style="shape=parallelogram;perimeter=parallelogramPerimeter;whiteSpace=wrap;html=1;fixedSize=1;" vertex="1" parent="WIyWlLk6GJQsqaUBKTNV-1">
          <mxGeometry x="620" y="121" width="120" height="30" as="geometry" />
        </mxCell>
        <mxCell id="fgxXzfWQmhOMSccFoDnU-14" style="edgeStyle=orthogonalEdgeStyle;rounded=0;orthogonalLoop=1;jettySize=auto;html=1;exitX=0.5;exitY=1;exitDx=0;exitDy=0;entryX=0.5;entryY=0;entryDx=0;entryDy=0;" edge="1" parent="WIyWlLk6GJQsqaUBKTNV-1" source="fgxXzfWQmhOMSccFoDnU-9" target="fgxXzfWQmhOMSccFoDnU-12">
          <mxGeometry relative="1" as="geometry" />
        </mxCell>
        <mxCell id="fgxXzfWQmhOMSccFoDnU-9" value="Aquecer água" style="rounded=1;whiteSpace=wrap;html=1;" vertex="1" parent="WIyWlLk6GJQsqaUBKTNV-1">
          <mxGeometry x="560" y="191" width="120" height="30" as="geometry" />
        </mxCell>
        <mxCell id="fgxXzfWQmhOMSccFoDnU-15" value="N" style="edgeStyle=orthogonalEdgeStyle;rounded=0;orthogonalLoop=1;jettySize=auto;html=1;exitX=1;exitY=0.5;exitDx=0;exitDy=0;entryX=1;entryY=0.5;entryDx=0;entryDy=0;" edge="1" parent="WIyWlLk6GJQsqaUBKTNV-1" source="fgxXzfWQmhOMSccFoDnU-12" target="fgxXzfWQmhOMSccFoDnU-9">
          <mxGeometry x="-0.7949" relative="1" as="geometry">
            <Array as="points">
              <mxPoint x="700" y="301" />
              <mxPoint x="700" y="206" />
            </Array>
            <mxPoint as="offset" />
          </mxGeometry>
        </mxCell>
        <mxCell id="fgxXzfWQmhOMSccFoDnU-18" value="S" style="edgeStyle=orthogonalEdgeStyle;rounded=0;orthogonalLoop=1;jettySize=auto;html=1;" edge="1" parent="WIyWlLk6GJQsqaUBKTNV-1" source="fgxXzfWQmhOMSccFoDnU-12" target="fgxXzfWQmhOMSccFoDnU-16">
          <mxGeometry relative="1" as="geometry">
            <mxPoint as="offset" />
          </mxGeometry>
        </mxCell>
        <mxCell id="fgxXzfWQmhOMSccFoDnU-12" value="Chaleira apitou?" style="rhombus;whiteSpace=wrap;html=1;" vertex="1" parent="WIyWlLk6GJQsqaUBKTNV-1">
          <mxGeometry x="580" y="261" width="80" height="80" as="geometry" />
        </mxCell>
        <mxCell id="fgxXzfWQmhOMSccFoDnU-16" value="Desligar fogão" style="rounded=1;whiteSpace=wrap;html=1;" vertex="1" parent="WIyWlLk6GJQsqaUBKTNV-1">
          <mxGeometry x="575" y="381" width="90" height="30" as="geometry" />
        </mxCell>
        <mxCell id="fgxXzfWQmhOMSccFoDnU-19" value="Coador" style="shape=parallelogram;perimeter=parallelogramPerimeter;whiteSpace=wrap;html=1;fixedSize=1;" vertex="1" parent="WIyWlLk6GJQsqaUBKTNV-1">
          <mxGeometry x="270" y="121" width="120" height="30" as="geometry" />
        </mxCell>
        <mxCell id="fgxXzfWQmhOMSccFoDnU-22" value="" style="edgeStyle=orthogonalEdgeStyle;rounded=0;orthogonalLoop=1;jettySize=auto;html=1;" edge="1" parent="WIyWlLk6GJQsqaUBKTNV-1" source="fgxXzfWQmhOMSccFoDnU-20" target="fgxXzfWQmhOMSccFoDnU-19">
          <mxGeometry relative="1" as="geometry" />
        </mxCell>
        <mxCell id="fgxXzfWQmhOMSccFoDnU-20" value="Filtro" style="shape=parallelogram;perimeter=parallelogramPerimeter;whiteSpace=wrap;html=1;fixedSize=1;" vertex="1" parent="WIyWlLk6GJQsqaUBKTNV-1">
          <mxGeometry x="270" y="50" width="120" height="30" as="geometry" />
        </mxCell>
      </root>
    </mxGraphModel>
  </diagram>
</mxfile>
